<?xml version="1.0" standalone="no"?>
<!DOCTYPE svg PUBLIC "-//W3C//DTD SVG 20010904//EN"
 "http://www.w3.org/TR/2001/REC-SVG-20010904/DTD/svg10.dtd">
<svg version="1.0" xmlns="http://www.w3.org/2000/svg"
 width="920.000000pt" height="804.000000pt" viewBox="0 0 920.000000 804.000000"
 preserveAspectRatio="xMidYMid meet">

<g transform="translate(0.000000,804.000000) scale(0.100000,-0.100000)"
fill="#000000" stroke="none">
<path d="M3655 8023 c-653 -54 -1279 -272 -1840 -640 -450 -296 -868 -711
-1160 -1153 -283 -428 -478 -912 -585 -1450 -48 -241 -59 -344 -67 -630 -14
-531 46 -938 212 -1434 225 -676 633 -1272 1200 -1757 549 -469 1210 -780
1902 -893 280 -46 468 -59 783 -53 604 12 1014 105 1641 375 140 61 297 126
349 145 619 229 1244 285 1840 166 191 -38 482 -145 665 -244 221 -120 322
-141 426 -92 176 84 231 291 119 446 -91 125 -643 378 -1018 467 -211 50 -410
70 -918 92 l-161 7 95 120 c190 240 375 541 512 835 393 842 480 1727 259
2650 -87 364 -262 790 -463 1124 -378 628 -972 1179 -1625 1505 -452 227 -959
373 -1426 411 -115 9 -640 12 -740 3z m587 -1003 c255 -65 498 -295 590 -560
108 -312 30 -654 -205 -893 -74 -75 -160 -135 -260 -183 -124 -58 -182 -69
-362 -68 -153 0 -164 1 -255 32 -252 86 -454 281 -553 532 -117 297 -46 642
182 892 127 139 321 243 501 269 89 13 270 2 362 -21z m1948 -1446 c87 -18
222 -73 300 -122 84 -52 220 -196 274 -288 84 -143 135 -353 121 -499 -15
-170 -72 -327 -158 -441 -82 -107 -224 -235 -308 -276 -207 -101 -428 -123
-633 -63 -241 70 -422 216 -532 428 -81 157 -106 255 -105 421 0 136 22 229
86 361 87 179 215 311 390 402 185 96 357 119 565 77z m-4001 1 c146 -35 264
-97 386 -203 136 -118 232 -271 277 -442 30 -118 30 -310 -1 -425 -72 -267
-267 -490 -514 -586 -142 -54 -191 -63 -337 -63 -116 1 -147 5 -223 27 -304
93 -525 311 -609 604 -30 104 -33 351 -5 453 84 311 354 566 670 635 85 18
277 18 356 0z m1963 -1237 c62 -26 141 -111 180 -193 26 -58 30 -74 26 -133
-8 -130 -92 -254 -209 -307 -56 -25 -70 -27 -148 -23 -74 3 -95 9 -149 38
-214 114 -253 379 -81 548 95 93 255 123 381 70z m1288 -1123 c169 -40 308
-119 430 -245 181 -185 264 -431 239 -701 -22 -234 -128 -428 -317 -580 -350
-282 -836 -256 -1152 61 -283 282 -341 705 -143 1048 136 235 360 387 638 433
67 11 225 2 305 -16z m-2415 -19 c243 -73 429 -240 545 -490 59 -126 81 -295
60 -461 -21 -166 -56 -254 -158 -392 -115 -154 -284 -271 -478 -329 -76 -23
-108 -27 -219 -27 -162 -1 -230 15 -383 90 -96 47 -127 68 -204 141 -168 160
-252 323 -278 536 -51 431 224 831 653 947 110 29 338 22 462 -15z"/>
</g>
</svg>
